<svg width="1156" height="998" viewBox="0 0 1156 998" fill="none" xmlns="http://www.w3.org/2000/svg">
<path d="M998.051 312.465H999.612C1001.05 312.465 1002.13 312.224 1002.85 311.733C1003.57 311.233 1003.94 310.511 1003.94 309.558C1003.94 308.61 1003.63 307.912 1003.02 307.46C1002.43 306.998 1001.49 306.766 1000.21 306.766H998.051V312.465ZM1008.69 309.423C1008.69 311.493 1007.94 313.071 1006.44 314.159C1004.95 315.252 1002.83 315.795 1000.08 315.795H998.051V322.611H993.346V303.436H1000.44C1003.14 303.436 1005.19 303.937 1006.59 304.938C1007.99 305.939 1008.69 307.435 1008.69 309.423Z" fill="black"/>
<path d="M1022 307.671C1022.62 307.671 1023.14 307.71 1023.56 307.787L1023.22 311.541C1022.83 311.454 1022.38 311.406 1021.84 311.406C1020.37 311.406 1019.22 311.733 1018.39 312.388C1017.57 313.043 1017.16 313.962 1017.16 315.141V322.611H1012.52V307.941H1016.02L1016.71 310.424H1016.94C1017.47 309.592 1018.18 308.923 1019.08 308.422C1019.97 307.922 1020.94 307.671 1022 307.671Z" fill="black"/>
<path d="M1033.67 310.521C1032.69 310.521 1031.91 310.79 1031.35 311.329C1030.8 311.868 1030.49 312.633 1030.41 313.62H1036.9C1036.89 312.633 1036.59 311.868 1036.01 311.329C1035.43 310.79 1034.65 310.521 1033.67 310.521ZM1034.34 322.88C1031.6 322.88 1029.46 322.235 1027.92 320.936C1026.38 319.627 1025.62 317.778 1025.62 315.391C1025.62 312.927 1026.32 311.031 1027.74 309.693C1029.16 308.345 1031.13 307.671 1033.65 307.671C1036.04 307.671 1037.91 308.263 1039.24 309.442C1040.58 310.626 1041.25 312.253 1041.25 314.332V316.277H1030.3C1030.36 317.422 1030.75 318.313 1031.48 318.953C1032.21 319.583 1033.23 319.896 1034.54 319.896C1035.56 319.896 1036.53 319.809 1037.44 319.627C1038.36 319.434 1039.31 319.14 1040.29 318.741V321.84C1039.49 322.187 1038.63 322.447 1037.71 322.611C1036.78 322.789 1035.66 322.88 1034.34 322.88Z" fill="black"/>
<path d="M1056.86 318.26C1056.86 319.761 1056.25 320.912 1055.04 321.706C1053.83 322.49 1052.02 322.88 1049.62 322.88C1048.38 322.88 1047.33 322.803 1046.45 322.649C1045.59 322.509 1044.78 322.298 1044.02 322.014V318.722C1044.88 319.068 1045.85 319.367 1046.92 319.607C1048 319.838 1048.95 319.954 1049.77 319.954C1051.45 319.954 1052.29 319.53 1052.29 318.683C1052.29 318.375 1052.18 318.125 1051.96 317.932C1051.73 317.73 1051.34 317.504 1050.8 317.259C1050.26 317.004 1049.53 316.71 1048.61 316.373C1047.32 315.911 1046.36 315.483 1045.74 315.083C1045.12 314.674 1044.68 314.212 1044.4 313.697C1044.13 313.172 1044 312.532 1044 311.772C1044 310.463 1044.58 309.457 1045.74 308.749C1046.91 308.032 1048.57 307.671 1050.71 307.671C1052.76 307.671 1054.75 308.056 1056.69 308.826L1055.28 311.714C1054.43 311.397 1053.64 311.137 1052.89 310.944C1052.16 310.742 1051.41 310.636 1050.64 310.636C1049.27 310.636 1048.59 310.959 1048.59 311.599C1048.59 311.96 1048.8 312.272 1049.24 312.542C1049.68 312.802 1050.65 313.187 1052.14 313.697C1053.47 314.159 1054.44 314.597 1055.06 315.006C1055.68 315.406 1056.13 315.868 1056.42 316.392C1056.71 316.907 1056.86 317.528 1056.86 318.26Z" fill="black"/>
<path d="M1071.28 322.61L1070.36 320.608H1070.25C1069.48 321.47 1068.67 322.067 1067.84 322.399C1067.01 322.716 1065.93 322.88 1064.61 322.88C1062.99 322.88 1061.71 322.476 1060.77 321.667C1059.84 320.859 1059.37 319.713 1059.37 318.221C1059.37 316.671 1059.99 315.526 1061.24 314.794C1062.5 314.053 1064.41 313.639 1066.95 313.562L1069.89 313.485V312.85C1069.89 311.363 1069.01 310.617 1067.26 310.617C1065.91 310.617 1064.31 310.973 1062.47 311.676L1060.93 308.98C1062.89 308.095 1065.06 307.652 1067.44 307.652C1069.72 307.652 1071.46 308.085 1072.68 308.942C1073.9 309.789 1074.51 311.093 1074.51 312.85V322.61H1071.28ZM1069.89 315.815L1068.11 315.872C1066.75 315.911 1065.75 316.123 1065.1 316.508C1064.44 316.893 1064.12 317.48 1064.12 318.26C1064.12 319.391 1064.86 319.954 1066.37 319.954C1067.44 319.954 1068.29 319.694 1068.93 319.164C1069.57 318.625 1069.89 317.913 1069.89 317.028V315.815Z" fill="black"/>
<path d="M1083.91 322.61H1079.27V302.204H1083.91V322.61Z" fill="black"/>
<path d="M1095.79 310.521C1094.81 310.521 1094.03 310.79 1093.47 311.329C1092.92 311.868 1092.6 312.633 1092.53 313.62H1099.02C1099 312.633 1098.71 311.868 1098.13 311.329C1097.55 310.79 1096.77 310.521 1095.79 310.521ZM1096.46 322.88C1093.72 322.88 1091.58 322.235 1090.03 320.936C1088.5 319.627 1087.74 317.778 1087.74 315.391C1087.74 312.927 1088.44 311.031 1089.86 309.693C1091.28 308.345 1093.25 307.671 1095.77 307.671C1098.16 307.671 1100.02 308.263 1101.36 309.442C1102.7 310.626 1103.37 312.253 1103.37 314.332V316.277H1092.42C1092.48 317.422 1092.87 318.313 1093.6 318.953C1094.33 319.583 1095.35 319.896 1096.66 319.896C1097.68 319.896 1098.65 319.809 1099.56 319.627C1100.48 319.434 1101.43 319.14 1102.41 318.741V321.84C1101.61 322.187 1100.74 322.447 1099.82 322.611C1098.9 322.789 1097.78 322.88 1096.46 322.88Z" fill="black"/>
<path d="M1031.76 344.652C1031.76 345.846 1031.34 346.866 1030.49 347.713C1029.65 348.551 1028.48 349.128 1026.97 349.446V349.523C1028.75 349.715 1030.1 350.187 1031.02 350.928C1031.94 351.674 1032.41 352.68 1032.41 353.951C1032.41 355.799 1031.63 357.238 1030.09 358.263C1028.54 359.293 1026.33 359.803 1023.47 359.803C1021.04 359.803 1018.9 359.457 1017.04 358.764V355.318C1017.9 355.693 1018.85 356.001 1019.87 356.242C1020.91 356.473 1021.94 356.588 1022.95 356.588C1024.5 356.588 1025.64 356.367 1026.39 355.914C1027.13 355.452 1027.5 354.721 1027.5 353.72C1027.5 352.81 1027.07 352.17 1026.21 351.795C1025.36 351.424 1024.01 351.236 1022.15 351.236H1020.45V348.117H1022.17C1023.89 348.117 1025.15 347.925 1025.94 347.54C1026.74 347.155 1027.14 346.491 1027.14 345.538C1027.14 344.089 1026.09 343.362 1023.98 343.362C1023.25 343.362 1022.51 343.473 1021.75 343.69C1021 343.897 1020.17 344.258 1019.25 344.768L1017.07 341.976C1019.1 340.72 1021.51 340.09 1024.31 340.09C1026.61 340.09 1028.43 340.494 1029.75 341.302C1031.09 342.101 1031.76 343.218 1031.76 344.652Z" fill="black"/>
<path d="M1042.94 347.29C1045.09 347.29 1046.8 347.809 1048.07 348.849C1049.34 349.889 1049.98 351.313 1049.98 353.123C1049.98 355.269 1049.21 356.915 1047.69 358.071C1046.15 359.226 1043.96 359.803 1041.11 359.803C1038.64 359.803 1036.65 359.457 1035.13 358.764V355.26C1035.93 355.635 1036.86 355.934 1037.92 356.165C1038.99 356.396 1040 356.511 1040.95 356.511C1043.82 356.511 1045.26 355.5 1045.26 353.469C1045.26 351.535 1043.77 350.562 1040.8 350.562C1040.26 350.562 1039.66 350.611 1039.01 350.697C1038.37 350.789 1037.85 350.89 1037.45 351.005L1035.58 350.139L1036.4 340.359H1048.44V343.805H1040.53L1040.13 347.559L1040.64 347.463C1041.26 347.347 1042.03 347.29 1042.94 347.29Z" fill="black"/>
<path d="M1056.16 346.096C1056.16 347.213 1056.28 348.05 1056.5 348.599C1056.72 349.138 1057.08 349.407 1057.59 349.407C1058.57 349.407 1059.06 348.305 1059.06 346.096C1059.06 343.916 1058.57 342.823 1057.59 342.823C1057.08 342.823 1056.72 343.093 1056.5 343.632C1056.28 344.171 1056.16 344.994 1056.16 346.096ZM1062.88 346.077C1062.88 348.093 1062.42 349.609 1061.52 350.62C1060.62 351.621 1059.31 352.122 1057.57 352.122C1055.9 352.122 1054.61 351.612 1053.69 350.582C1052.78 349.542 1052.33 348.04 1052.33 346.077C1052.33 342.087 1054.07 340.09 1057.57 340.09C1059.28 340.09 1060.59 340.609 1061.49 341.649C1062.41 342.679 1062.88 344.152 1062.88 346.077ZM1073.34 340.359L1061.03 359.534H1057.37L1069.68 340.359H1073.34ZM1071.71 353.758C1071.71 354.875 1071.82 355.712 1072.04 356.261C1072.28 356.8 1072.65 357.069 1073.16 357.069C1074.12 357.069 1074.61 355.967 1074.61 353.758C1074.61 351.578 1074.12 350.485 1073.16 350.485C1072.65 350.485 1072.28 350.755 1072.04 351.294C1071.82 351.833 1071.71 352.656 1071.71 353.758ZM1078.44 353.739C1078.44 355.741 1077.98 357.252 1077.08 358.263C1076.19 359.264 1074.86 359.765 1073.11 359.765C1071.45 359.765 1070.15 359.255 1069.23 358.225C1068.32 357.185 1067.87 355.693 1067.87 353.739C1067.87 349.749 1069.62 347.752 1073.11 347.752C1074.83 347.752 1076.15 348.272 1077.06 349.311C1077.98 350.341 1078.44 351.814 1078.44 353.739Z" fill="black"/>
<path d="M64.8735 502.506V483.331H69.5787V502.506H64.8735Z" fill="black"/>
<path d="M90.4904 502.506H85.8522V493.939C85.8522 492.89 85.6347 492.1 85.2055 491.571C84.7706 491.032 84.0794 490.762 83.1316 490.762C81.8215 490.762 80.8794 491.143 80.2996 491.898C79.731 492.644 79.4522 493.881 79.4522 495.614V502.506H74.814V487.836H78.3596L78.9839 489.723H79.2292C79.7477 489.02 80.4613 488.486 81.37 488.125C82.2731 487.754 83.31 487.567 84.4696 487.567C86.4319 487.567 87.926 488.029 88.9518 488.953C89.9775 489.877 90.4904 491.205 90.4904 492.938V502.506Z" fill="black"/>
<path d="M95.0562 484.063C95.0562 482.754 95.8924 482.099 97.576 482.099C99.254 482.099 100.096 482.754 100.096 484.063C100.096 484.679 99.884 485.16 99.4714 485.507C99.0533 485.853 98.4234 486.027 97.576 486.027C95.8924 486.027 95.0562 485.372 95.0562 484.063ZM99.8951 502.506H95.2568V487.836H99.8951V502.506Z" fill="black"/>
<path d="M111.774 499.637C112.944 499.637 113.809 499.349 114.36 498.771C114.907 498.184 115.208 497.164 115.252 495.71V495.229C115.252 493.65 114.968 492.524 114.405 491.84C113.853 491.162 112.956 490.82 111.707 490.82C109.533 490.82 108.451 492.298 108.451 495.248C108.451 496.726 108.719 497.828 109.254 498.559C109.789 499.281 110.625 499.637 111.774 499.637ZM110.124 502.775C108.117 502.775 106.545 502.111 105.418 500.773C104.287 499.44 103.724 497.587 103.724 495.21C103.724 492.813 104.303 490.936 105.463 489.588C106.623 488.24 108.206 487.567 110.213 487.567C111.283 487.567 112.22 487.75 113.022 488.106C113.825 488.452 114.528 488.991 115.141 489.723H115.252L115.676 487.836H119.578V508.955H114.94V502.814C114.94 502.275 115.007 501.538 115.141 500.6H114.94C114.45 501.307 113.786 501.846 112.956 502.217C112.136 502.588 111.194 502.775 110.124 502.775Z" fill="black"/>
<path d="M136.452 502.506L135.85 500.638H135.604C135.097 501.322 134.389 501.846 133.486 502.217C132.577 502.588 131.535 502.775 130.364 502.775C128.368 502.775 126.869 502.313 125.86 501.389C124.845 500.465 124.343 499.137 124.343 497.404V487.836H128.982V496.403C128.982 497.472 129.193 498.266 129.628 498.79C130.057 499.32 130.749 499.58 131.702 499.58C132.995 499.58 133.932 499.209 134.512 498.463C135.092 497.722 135.381 496.48 135.381 494.747V487.836H140.02V502.506H136.452Z" fill="black"/>
<path d="M144.675 484.063C144.675 482.754 145.511 482.099 147.195 482.099C148.873 482.099 149.714 482.754 149.714 484.063C149.714 484.679 149.503 485.16 149.09 485.507C148.672 485.853 148.042 486.027 147.195 486.027C145.511 486.027 144.675 485.372 144.675 484.063ZM149.514 502.506H144.875V487.836H149.514V502.506Z" fill="black"/>
<path d="M161.526 499.58C162.329 499.58 163.299 499.426 164.447 499.118V502.102C163.288 502.549 161.866 502.775 160.188 502.775C158.326 502.775 156.977 502.371 156.13 501.563C155.282 500.754 154.859 499.541 154.859 497.924V490.839H152.651V489.165L155.193 487.817L156.531 484.717H159.497V487.836H164.247V490.839H159.497V497.924C159.497 498.492 159.681 498.906 160.054 499.175C160.422 499.445 160.913 499.58 161.526 499.58Z" fill="black"/>
<path d="M165.439 487.836H170.523L173.712 496.095C173.991 496.817 174.18 497.664 174.27 498.636H174.381C174.481 497.741 174.699 496.894 175.028 496.095L178.172 487.836H183.145L175.942 504.373C175.284 505.913 174.348 507.059 173.132 507.819C171.911 508.575 170.484 508.955 168.851 508.955C168.048 508.955 167.268 508.883 166.509 508.743V505.567C167.056 505.682 167.658 505.74 168.316 505.74C169.146 505.74 169.865 505.519 170.479 505.086C171.086 504.648 171.56 503.993 171.906 503.122L172.173 502.41L165.439 487.836Z" fill="black"/>
<path d="M107.606 539.429H92.0855V536.618L97.6603 531.748C99.3105 530.285 100.386 529.274 100.894 528.706C101.395 528.143 101.763 527.623 101.986 527.147C102.209 526.661 102.321 526.16 102.321 525.645C102.321 524.875 102.076 524.307 101.585 523.932C101.094 523.561 100.437 523.373 99.6226 523.373C98.7585 523.373 97.9167 523.547 97.1028 523.893C96.3 524.23 95.4582 524.711 94.583 525.337L92.0186 522.719C93.1168 521.925 94.0255 521.362 94.7391 521.025C95.4527 520.693 96.2331 520.438 97.0805 520.255C97.939 520.077 98.8979 519.985 99.9571 519.985C101.34 519.985 102.555 520.207 103.614 520.64C104.685 521.078 105.51 521.694 106.089 522.488C106.68 523.272 106.981 524.172 106.981 525.183C106.981 526.059 106.803 526.887 106.446 527.666C106.089 528.437 105.532 529.235 104.774 530.054C104.016 530.862 102.683 532.017 100.782 533.519L97.9279 535.829V536.022H107.606V539.429Z" fill="black"/>
<path d="M125.249 529.842C125.249 533.192 124.608 535.675 123.331 537.292C122.065 538.9 120.109 539.699 117.466 539.699C114.891 539.699 112.951 538.871 111.646 537.215C110.353 535.55 109.706 533.091 109.706 529.842C109.706 526.454 110.336 523.96 111.602 522.353C112.878 520.75 114.835 519.947 117.466 519.947C120.02 519.947 121.954 520.789 123.264 522.468C124.585 524.153 125.249 526.608 125.249 529.842ZM114.389 529.842C114.389 532.191 114.617 533.88 115.08 534.905C115.554 535.921 116.351 536.426 117.466 536.426C118.548 536.426 119.339 535.916 119.83 534.886C120.321 533.846 120.566 532.166 120.566 529.842C120.566 527.493 120.321 525.809 119.83 524.779C119.339 523.754 118.548 523.239 117.466 523.239C116.362 523.239 115.576 523.754 115.103 524.779C114.623 525.809 114.389 527.493 114.389 529.842Z" fill="black"/>
<path d="M131.14 525.992C131.14 527.108 131.252 527.946 131.475 528.494C131.698 529.033 132.06 529.303 132.567 529.303C133.549 529.303 134.039 528.201 134.039 525.992C134.039 523.811 133.549 522.719 132.567 522.719C132.06 522.719 131.698 522.988 131.475 523.527C131.252 524.066 131.14 524.889 131.14 525.992ZM137.852 525.972C137.852 527.989 137.395 529.505 136.492 530.516C135.6 531.517 134.284 532.017 132.545 532.017C130.878 532.017 129.585 531.507 128.665 530.477C127.756 529.438 127.305 527.936 127.305 525.972C127.305 521.982 129.05 519.985 132.545 519.985C134.251 519.985 135.561 520.505 136.47 521.544C137.39 522.574 137.852 524.047 137.852 525.972ZM148.311 520.255L136.001 539.429H132.344L144.654 520.255H148.311ZM146.683 533.654C146.683 534.77 146.794 535.608 147.017 536.156C147.251 536.695 147.625 536.965 148.132 536.965C149.097 536.965 149.582 535.863 149.582 533.654C149.582 531.473 149.097 530.381 148.132 530.381C147.625 530.381 147.251 530.65 147.017 531.19C146.794 531.729 146.683 532.552 146.683 533.654ZM153.417 533.634C153.417 535.637 152.96 537.148 152.057 538.159C151.165 539.16 149.838 539.66 148.088 539.66C146.421 539.66 145.127 539.15 144.208 538.12C143.299 537.08 142.847 535.588 142.847 533.634C142.847 529.645 144.592 527.647 148.088 527.647C149.81 527.647 151.126 528.167 152.035 529.207C152.955 530.237 153.417 531.709 153.417 533.634Z" fill="black"/>
<path d="M811.203 845.81C811.203 848.958 810.161 851.369 808.081 853.048C805.996 854.733 802.986 855.57 799.05 855.57H792.762V836.396H799.741C803.365 836.396 806.186 837.224 808.193 838.879C810.2 840.535 811.203 842.845 811.203 845.81ZM806.297 845.906C806.297 841.786 804.19 839.726 799.987 839.726H797.467V852.221H799.496C804.028 852.221 806.297 850.117 806.297 845.906Z" fill="black"/>
<path d="M822.454 843.48C821.473 843.48 820.698 843.75 820.135 844.289C819.583 844.828 819.271 845.593 819.199 846.58H825.688C825.671 845.593 825.376 844.828 824.796 844.289C824.216 843.75 823.436 843.48 822.454 843.48ZM823.123 855.84C820.386 855.84 818.245 855.195 816.701 853.895C815.168 852.586 814.404 850.738 814.404 848.351C814.404 845.887 815.107 843.99 816.523 842.653C817.95 841.305 819.918 840.631 822.432 840.631C824.824 840.631 826.691 841.223 828.029 842.402C829.367 843.586 830.036 845.213 830.036 847.292V849.237H819.087C819.143 850.382 819.539 851.272 820.269 851.913C820.994 852.543 822.014 852.856 823.324 852.856C824.35 852.856 825.314 852.769 826.223 852.586C827.143 852.394 828.096 852.1 829.077 851.701V854.8C828.275 855.147 827.41 855.407 826.491 855.57C825.565 855.748 824.445 855.84 823.123 855.84Z" fill="black"/>
<path d="M837.843 855.57L831.376 840.901H836.215L839.493 849.256C839.861 850.324 840.095 851.325 840.184 852.259H840.273C840.329 851.426 840.563 850.425 840.965 849.256L844.22 840.901H849.082L842.593 855.57H837.843Z" fill="black"/>
<path d="M858.525 843.48C857.544 843.48 856.769 843.75 856.206 844.289C855.654 844.828 855.341 845.593 855.269 846.58H861.758C861.741 845.593 861.446 844.828 860.866 844.289C860.286 843.75 859.506 843.48 858.525 843.48ZM859.194 855.84C856.456 855.84 854.316 855.195 852.771 853.895C851.238 852.586 850.475 850.738 850.475 848.351C850.475 845.887 851.177 843.99 852.593 842.653C854.02 841.305 855.988 840.631 858.502 840.631C860.894 840.631 862.762 841.223 864.1 842.402C865.437 843.586 866.106 845.213 866.106 847.292V849.237H855.157C855.213 850.382 855.609 851.272 856.339 851.913C857.064 852.543 858.084 852.856 859.394 852.856C860.42 852.856 861.385 852.769 862.293 852.586C863.213 852.394 864.166 852.1 865.148 851.701V854.8C864.345 855.147 863.481 855.407 862.561 855.57C861.635 855.748 860.515 855.84 859.194 855.84Z" fill="black"/>
<path d="M874.516 855.57H869.878V835.164H874.516V855.57Z" fill="black"/>
<path d="M883.072 848.216C883.072 849.67 883.345 850.767 883.897 851.508C884.444 852.254 885.347 852.625 886.595 852.625C887.828 852.625 888.714 852.259 889.249 851.527C889.795 850.786 890.074 849.679 890.074 848.216C890.074 846.768 889.795 845.685 889.249 844.963C888.697 844.231 887.8 843.865 886.551 843.865C885.313 843.865 884.421 844.226 883.875 844.943C883.34 845.665 883.072 846.753 883.072 848.216ZM894.802 848.216C894.802 850.603 894.071 852.471 892.616 853.818C891.156 855.166 889.126 855.84 886.529 855.84C884.89 855.84 883.451 855.532 882.203 854.916C880.965 854.3 880.017 853.414 879.348 852.259C878.679 851.104 878.345 849.756 878.345 848.216C878.345 845.819 879.064 843.957 880.508 842.633C881.946 841.3 883.986 840.631 886.618 840.631C888.251 840.631 889.684 840.939 890.922 841.555C892.17 842.171 893.129 843.052 893.798 844.193C894.467 845.338 894.802 846.676 894.802 848.216Z" fill="black"/>
<path d="M907.95 855.84C905.954 855.84 904.393 855.214 903.267 853.953H903.022C903.184 855.185 903.267 855.898 903.267 856.09V862.02H898.629V840.901H902.398L903.044 842.807H903.267C904.349 841.358 905.954 840.631 908.084 840.631C910.091 840.631 911.657 841.305 912.789 842.653C913.915 843.99 914.484 845.843 914.484 848.216C914.484 849.785 914.216 851.142 913.681 852.298C913.157 853.453 912.399 854.333 911.406 854.935C910.425 855.541 909.271 855.84 907.95 855.84ZM906.59 843.827C905.441 843.827 904.605 844.135 904.07 844.751C903.546 845.357 903.278 846.358 903.267 847.754V848.197C903.267 849.766 903.535 850.887 904.07 851.566C904.616 852.249 905.48 852.586 906.657 852.586C908.719 852.586 909.756 851.114 909.756 848.158C909.756 846.724 909.494 845.646 908.976 844.924C908.469 844.193 907.671 843.827 906.59 843.827Z" fill="black"/>
<path d="M933.52 855.57H928.881V847.003C928.881 845.954 928.67 845.165 928.257 844.635C927.856 844.096 927.215 843.827 926.339 843.827C925.146 843.827 924.288 844.207 923.753 844.963C923.217 845.723 922.95 846.96 922.95 848.678V855.57H918.312V840.901H921.857L922.482 842.787H922.727C923.184 842.109 923.847 841.584 924.711 841.209C925.57 840.824 926.562 840.631 927.677 840.631C930.219 840.631 931.936 841.353 932.828 842.787H933.252C933.698 842.109 934.356 841.584 935.237 841.209C936.129 840.824 937.132 840.631 938.247 840.631C940.176 840.631 941.637 841.064 942.618 841.921C943.61 842.768 944.112 844.13 944.112 846.002V855.57H939.451V847.003C939.451 845.954 939.239 845.165 938.827 844.635C938.426 844.096 937.784 843.827 936.909 843.827C935.761 843.827 934.908 844.183 934.345 844.886C933.793 845.579 933.52 846.691 933.52 848.216V855.57Z" fill="black"/>
<path d="M955.879 843.48C954.898 843.48 954.123 843.75 953.56 844.289C953.008 844.828 952.696 845.593 952.623 846.58H959.113C959.096 845.593 958.8 844.828 958.221 844.289C957.641 843.75 956.86 843.48 955.879 843.48ZM956.548 855.84C953.811 855.84 951.67 855.195 950.126 853.895C948.593 852.586 947.829 850.738 947.829 848.351C947.829 845.887 948.532 843.99 949.948 842.653C951.375 841.305 953.343 840.631 955.857 840.631C958.248 840.631 960.116 841.223 961.454 842.402C962.792 843.586 963.461 845.213 963.461 847.292V849.237H952.512C952.568 850.382 952.964 851.272 953.694 851.913C954.419 852.543 955.439 852.856 956.749 852.856C957.775 852.856 958.739 852.769 959.648 852.586C960.568 852.394 961.521 852.1 962.502 851.701V854.8C961.699 855.147 960.835 855.407 959.915 855.57C958.99 855.748 957.869 855.84 956.548 855.84Z" fill="black"/>
<path d="M982.908 855.57H978.27V847.003C978.27 845.954 978.052 845.165 977.623 844.635C977.188 844.096 976.497 843.827 975.549 843.827C974.239 843.827 973.297 844.207 972.717 844.963C972.148 845.709 971.87 846.946 971.87 848.678V855.57H967.231V840.901H970.777L971.401 842.787H971.647C972.165 842.085 972.879 841.55 973.787 841.189C974.691 840.819 975.728 840.631 976.887 840.631C978.849 840.631 980.343 841.093 981.369 842.017C982.395 842.941 982.908 844.27 982.908 846.002V855.57Z" fill="black"/>
<path d="M994.832 852.644C995.635 852.644 996.605 852.49 997.753 852.182V855.166C996.594 855.614 995.172 855.84 993.494 855.84C991.632 855.84 990.283 855.436 989.436 854.627C988.588 853.819 988.165 852.606 988.165 850.989V843.904H985.957V842.229L988.499 840.881L989.837 837.782H992.803V840.901H997.553V843.904H992.803V850.989C992.803 851.556 992.987 851.97 993.36 852.24C993.728 852.509 994.219 852.644 994.832 852.644Z" fill="black"/>
<path d="M1030.15 855.57H1024.42L1022.68 854.088C1020.75 855.258 1018.56 855.84 1016.12 855.84C1013.65 855.84 1011.69 855.354 1010.24 854.377C1008.79 853.39 1008.07 852.062 1008.07 850.392C1008.07 849.198 1008.38 848.178 1008.99 847.331C1009.6 846.484 1010.64 845.694 1012.13 844.963C1011.37 844.207 1010.82 843.49 1010.48 842.807C1010.14 842.114 1009.97 841.363 1009.97 840.554C1009.97 839.235 1010.56 838.167 1011.73 837.358C1012.92 836.54 1014.5 836.126 1016.48 836.126C1018.35 836.126 1019.85 836.507 1020.99 837.262C1022.11 838.023 1022.68 839.029 1022.68 840.285C1022.68 841.339 1022.33 842.296 1021.63 843.153C1020.93 844.015 1019.8 844.828 1018.24 845.598L1022.57 849.237C1023.28 848.211 1023.9 846.898 1024.42 845.29H1029.26C1028.9 846.474 1028.4 847.629 1027.76 848.755C1027.12 849.872 1026.39 850.863 1025.58 851.72L1030.15 855.57ZM1012.96 850.007C1012.96 850.767 1013.28 851.369 1013.92 851.816C1014.57 852.254 1015.41 852.471 1016.44 852.471C1017.71 852.471 1018.87 852.211 1019.89 851.682L1014.85 847.35C1014.26 847.735 1013.79 848.139 1013.45 848.563C1013.12 848.977 1012.96 849.458 1012.96 850.007ZM1018.4 840.708C1018.4 840.246 1018.21 839.89 1017.84 839.63C1017.48 839.361 1017.02 839.226 1016.44 839.226C1015.77 839.226 1015.23 839.37 1014.83 839.649C1014.44 839.919 1014.25 840.314 1014.25 840.824C1014.25 841.594 1014.73 842.45 1015.7 843.384C1016.56 842.961 1017.22 842.547 1017.69 842.133C1018.16 841.724 1018.4 841.247 1018.4 840.708Z" fill="black"/>
<path d="M1049.61 855.57H1044.88V839.784H1038.86V836.396H1055.63V839.784H1049.61V855.57Z" fill="black"/>
<path d="M1065.7 843.48C1064.72 843.48 1063.95 843.75 1063.38 844.289C1062.83 844.828 1062.52 845.593 1062.45 846.58H1068.93C1068.92 845.593 1068.62 844.828 1068.04 844.289C1067.46 843.75 1066.68 843.48 1065.7 843.48ZM1066.37 855.84C1063.63 855.84 1061.49 855.195 1059.95 853.895C1058.42 852.586 1057.65 850.738 1057.65 848.351C1057.65 845.887 1058.35 843.99 1059.77 842.653C1061.2 841.305 1063.16 840.631 1065.68 840.631C1068.07 840.631 1069.94 841.223 1071.28 842.402C1072.61 843.586 1073.28 845.213 1073.28 847.292V849.237H1062.33C1062.39 850.382 1062.79 851.272 1063.52 851.913C1064.24 852.543 1065.26 852.856 1066.57 852.856C1067.6 852.856 1068.56 852.769 1069.47 852.586C1070.39 852.394 1071.34 852.1 1072.32 851.701V854.8C1071.52 855.147 1070.66 855.407 1069.74 855.57C1068.81 855.748 1067.69 855.84 1066.37 855.84Z" fill="black"/>
<path d="M1087.85 855.57L1086.93 853.568H1086.82C1086.05 854.43 1085.24 855.027 1084.41 855.359C1083.58 855.676 1082.5 855.84 1081.18 855.84C1079.56 855.84 1078.28 855.436 1077.34 854.627C1076.41 853.818 1075.94 852.673 1075.94 851.181C1075.94 849.631 1076.56 848.486 1077.81 847.754C1079.07 847.013 1080.98 846.599 1083.52 846.522L1086.46 846.445V845.81C1086.46 844.323 1085.58 843.577 1083.83 843.577C1082.48 843.577 1080.88 843.933 1079.04 844.636L1077.5 841.94C1079.46 841.055 1081.63 840.612 1084.01 840.612C1086.29 840.612 1088.03 841.045 1089.25 841.902C1090.47 842.749 1091.08 844.053 1091.08 845.81V855.57H1087.85ZM1086.46 848.775L1084.68 848.832C1083.33 848.871 1082.32 849.083 1081.67 849.468C1081.01 849.853 1080.69 850.44 1080.69 851.22C1080.69 852.351 1081.44 852.914 1082.94 852.914C1084.01 852.914 1084.86 852.654 1085.51 852.124C1086.14 851.585 1086.46 850.873 1086.46 849.987V848.775Z" fill="black"/>
<path d="M1111.05 855.57H1106.41V847.003C1106.41 845.954 1106.2 845.165 1105.79 844.635C1105.39 844.096 1104.74 843.827 1103.87 843.827C1102.68 843.827 1101.82 844.207 1101.28 844.963C1100.75 845.723 1100.48 846.96 1100.48 848.678V855.57H1095.84V840.901H1099.39L1100.01 842.787H1100.26C1100.71 842.109 1101.38 841.584 1102.24 841.209C1103.1 840.824 1104.09 840.631 1105.21 840.631C1107.75 840.631 1109.47 841.353 1110.36 842.787H1110.78C1111.23 842.109 1111.89 841.584 1112.77 841.209C1113.66 840.824 1114.66 840.631 1115.78 840.631C1117.71 840.631 1119.17 841.064 1120.15 841.921C1121.14 842.768 1121.64 844.13 1121.64 846.002V855.57H1116.98V847.003C1116.98 845.954 1116.77 845.165 1116.36 844.635C1115.96 844.096 1115.31 843.827 1114.44 843.827C1113.29 843.827 1112.44 844.183 1111.88 844.886C1111.32 845.579 1111.05 846.691 1111.05 848.216V855.57Z" fill="black"/>
<path d="M938.035 892.494H933.353V881.405L933.397 879.576L933.464 877.593C932.689 878.262 932.148 878.7 931.836 878.902L929.294 880.673L927.02 878.247L934.178 873.319H938.035V892.494Z" fill="black"/>
<path d="M952.267 880.25C954.419 880.25 956.13 880.769 957.396 881.809C958.672 882.849 959.313 884.273 959.313 886.083C959.313 888.229 958.544 889.875 957.016 891.031C955.483 892.186 953.292 892.763 950.438 892.763C947.968 892.763 945.978 892.417 944.462 891.724V888.22C945.265 888.595 946.19 888.894 947.249 889.125C948.32 889.356 949.329 889.471 950.282 889.471C953.148 889.471 954.586 888.46 954.586 886.429C954.586 884.495 953.097 883.522 950.126 883.522C949.591 883.522 948.994 883.571 948.342 883.657C947.701 883.749 947.182 883.85 946.781 883.965L944.908 883.099L945.733 873.319H957.775V876.765H949.858L949.457 880.519L949.97 880.423C950.594 880.307 951.358 880.25 952.267 880.25Z" fill="black"/>
<path d="M965.495 879.056C965.495 880.173 965.606 881.01 965.829 881.559C966.052 882.098 966.415 882.367 966.922 882.367C967.903 882.367 968.394 881.265 968.394 879.056C968.394 876.876 967.903 875.783 966.922 875.783C966.415 875.783 966.052 876.053 965.829 876.592C965.606 877.131 965.495 877.954 965.495 879.056ZM972.207 879.037C972.207 881.053 971.75 882.569 970.847 883.58C969.955 884.581 968.639 885.082 966.9 885.082C965.233 885.082 963.939 884.572 963.019 883.542C962.111 882.502 961.659 881 961.659 879.037C961.659 875.047 963.404 873.05 966.9 873.05C968.605 873.05 969.916 873.569 970.824 874.609C971.744 875.639 972.207 877.112 972.207 879.037ZM982.665 873.319L970.356 892.494H966.699L979.008 873.319H982.665ZM981.037 886.718C981.037 887.835 981.149 888.672 981.372 889.221C981.606 889.76 981.979 890.029 982.487 890.029C983.451 890.029 983.936 888.927 983.936 886.718C983.936 884.538 983.451 883.445 982.487 883.445C981.979 883.445 981.606 883.715 981.372 884.254C981.149 884.793 981.037 885.616 981.037 886.718ZM987.772 886.699C987.772 888.701 987.315 890.212 986.411 891.223C985.52 892.224 984.193 892.725 982.442 892.725C980.775 892.725 979.482 892.214 978.562 891.185C977.653 890.145 977.202 888.653 977.202 886.699C977.202 882.709 978.947 880.712 982.442 880.712C984.165 880.712 985.48 881.231 986.389 882.271C987.309 883.301 987.772 884.774 987.772 886.699Z" fill="black"/>
<path d="M43.4163 855.57H38.6888V839.784H32.668V836.396H49.4371V839.784H43.4163V855.57Z" fill="black"/>
<path d="M61.9641 840.631C62.5884 840.631 63.1069 840.67 63.525 840.747L63.1905 844.501C62.8003 844.414 62.3431 844.366 61.808 844.366C60.3362 844.366 59.1822 844.693 58.3516 845.348C57.5321 846.002 57.1251 846.922 57.1251 848.101V855.57H52.4868V840.901H55.9878L56.6791 843.384H56.9021C57.4373 842.551 58.1509 841.882 59.0428 841.382C59.9348 840.881 60.9048 840.631 61.9641 840.631Z" fill="black"/>
<path d="M73.636 843.48C72.6548 843.48 71.8799 843.75 71.3169 844.289C70.765 844.828 70.4528 845.593 70.3803 846.58H76.8694C76.8527 845.593 76.5572 844.828 75.9775 844.289C75.3977 843.75 74.6172 843.48 73.636 843.48ZM74.305 855.84C71.5677 855.84 69.427 855.195 67.8828 853.895C66.3497 852.586 65.5859 850.738 65.5859 848.351C65.5859 845.887 66.2884 843.99 67.7044 842.653C69.1315 841.305 71.0995 840.631 73.6137 840.631C76.0053 840.631 77.8729 841.223 79.2109 842.402C80.5488 843.586 81.2178 845.213 81.2178 847.292V849.237H70.2688C70.3246 850.382 70.7204 851.272 71.4507 851.913C72.1754 852.543 73.1956 852.856 74.5057 852.856C75.5315 852.856 76.4959 852.769 77.4046 852.586C78.3245 852.394 79.2778 852.1 80.2589 851.701V854.8C79.4562 855.147 78.5921 855.407 77.6722 855.57C76.7468 855.748 75.6262 855.84 74.305 855.84Z" fill="black"/>
<path d="M95.7819 855.57L94.8676 853.568H94.7561C93.9812 854.43 93.1784 855.027 92.3478 855.359C91.5116 855.676 90.4356 855.84 89.1144 855.84C87.4921 855.84 86.2155 855.436 85.2789 854.627C84.3423 853.818 83.874 852.673 83.874 851.181C83.874 849.631 84.4984 848.486 85.7472 847.754C87.0071 847.013 88.9137 846.599 91.4558 846.522L94.3993 846.445V845.81C94.3993 844.323 93.5185 843.577 91.768 843.577C90.4133 843.577 88.8133 843.933 86.9736 844.636L85.435 841.94C87.3973 841.055 89.5659 840.612 91.9464 840.612C94.2209 840.612 95.9659 841.045 97.1868 841.902C98.4021 842.749 99.0153 844.053 99.0153 845.81V855.57H95.7819ZM94.3993 848.775L92.6154 848.832C91.2607 848.871 90.2572 849.083 89.605 849.468C88.9471 849.853 88.6238 850.44 88.6238 851.22C88.6238 852.351 89.3708 852.914 90.876 852.914C91.9464 852.914 92.7994 852.654 93.4405 852.124C94.076 851.585 94.3993 850.873 94.3993 849.987V848.775Z" fill="black"/>
<path d="M115.617 851.219C115.617 852.721 115.004 853.871 113.789 854.665C112.585 855.45 110.778 855.84 108.37 855.84C107.132 855.84 106.079 855.763 105.203 855.609C104.339 855.469 103.531 855.257 102.773 854.974V851.681C103.631 852.028 104.601 852.326 105.672 852.567C106.753 852.798 107.707 852.914 108.526 852.914C110.204 852.914 111.046 852.49 111.046 851.643C111.046 851.335 110.934 851.085 110.711 850.892C110.488 850.69 110.098 850.464 109.552 850.218C109.017 849.963 108.286 849.67 107.366 849.333C106.073 848.871 105.114 848.442 104.49 848.043C103.877 847.634 103.431 847.172 103.152 846.657C102.884 846.132 102.75 845.492 102.75 844.732C102.75 843.423 103.33 842.417 104.49 841.709C105.661 840.992 107.322 840.631 109.463 840.631C111.514 840.631 113.504 841.016 115.439 841.786L114.034 844.674C113.187 844.356 112.389 844.096 111.648 843.904C110.918 843.702 110.165 843.596 109.396 843.596C108.024 843.596 107.344 843.918 107.344 844.558C107.344 844.919 107.556 845.232 107.991 845.502C108.437 845.762 109.401 846.147 110.89 846.657C112.228 847.119 113.198 847.557 113.811 847.966C114.435 848.365 114.887 848.827 115.171 849.352C115.467 849.867 115.617 850.488 115.617 851.219Z" fill="black"/>
<path d="M131.257 855.57L130.654 853.703H130.409C129.902 854.386 129.194 854.911 128.291 855.282C127.382 855.652 126.34 855.84 125.169 855.84C123.173 855.84 121.673 855.378 120.664 854.454C119.65 853.53 119.148 852.201 119.148 850.469V840.901H123.786V849.468C123.786 850.536 123.998 851.33 124.433 851.855C124.862 852.384 125.553 852.644 126.507 852.644C127.8 852.644 128.737 852.273 129.316 851.527C129.896 850.786 130.186 849.545 130.186 847.812V840.901H134.824V855.57H131.257Z" fill="black"/>
<path d="M149.157 840.631C149.782 840.631 150.3 840.67 150.718 840.747L150.384 844.501C149.994 844.414 149.537 844.366 149.001 844.366C147.53 844.366 146.376 844.693 145.545 845.348C144.725 846.002 144.318 846.922 144.318 848.101V855.57H139.68V840.901H143.181L143.872 843.384H144.095C144.631 842.551 145.344 841.882 146.236 841.382C147.128 840.881 148.098 840.631 149.157 840.631Z" fill="black"/>
<path d="M151.374 840.901H156.458L159.647 849.16C159.926 849.881 160.115 850.729 160.205 851.701H160.316C160.416 850.806 160.634 849.958 160.963 849.16L164.107 840.901H169.08L161.877 857.438C161.219 858.978 160.283 860.123 159.067 860.884C157.846 861.639 156.419 862.02 154.786 862.02C153.983 862.02 153.203 861.947 152.444 861.808V858.631C152.991 858.747 153.593 858.805 154.251 858.805C155.081 858.805 155.8 858.583 156.414 858.15C157.021 857.712 157.495 857.057 157.841 856.186L158.108 855.474L151.374 840.901Z" fill="black"/>
<path d="M200.473 855.57H194.742L193.003 854.088C191.068 855.258 188.883 855.84 186.447 855.84C183.977 855.84 182.015 855.354 180.56 854.377C179.116 853.39 178.396 852.062 178.396 850.392C178.396 849.198 178.698 848.178 179.311 847.331C179.918 846.484 180.966 845.694 182.455 844.963C181.697 844.207 181.145 843.49 180.805 842.807C180.459 842.114 180.292 841.363 180.292 840.554C180.292 839.235 180.877 838.167 182.054 837.358C183.241 836.54 184.824 836.126 186.803 836.126C188.676 836.126 190.176 836.507 191.308 837.262C192.434 838.023 193.003 839.029 193.003 840.285C193.003 841.339 192.651 842.296 191.955 843.153C191.252 844.015 190.126 844.828 188.565 845.598L192.891 849.237C193.605 848.211 194.218 846.898 194.742 845.29H199.581C199.224 846.474 198.722 847.629 198.087 848.755C197.446 849.872 196.715 850.863 195.901 851.72L200.473 855.57ZM183.28 850.007C183.28 850.767 183.598 851.369 184.239 851.816C184.891 852.254 185.733 852.471 186.759 852.471C188.035 852.471 189.189 852.211 190.215 851.682L185.175 847.35C184.579 847.735 184.111 848.139 183.771 848.563C183.442 848.977 183.28 849.458 183.28 850.007ZM188.721 840.708C188.721 840.246 188.532 839.89 188.164 839.63C187.807 839.361 187.339 839.226 186.759 839.226C186.09 839.226 185.555 839.37 185.153 839.649C184.763 839.919 184.573 840.314 184.573 840.824C184.573 841.594 185.053 842.45 186.023 843.384C186.881 842.961 187.545 842.547 188.008 842.133C188.481 841.724 188.721 841.247 188.721 840.708Z" fill="black"/>
<path d="M218.011 843.48C217.03 843.48 216.255 843.75 215.692 844.289C215.14 844.828 214.828 845.593 214.755 846.58H221.244C221.228 845.593 220.932 844.828 220.352 844.289C219.773 843.75 218.992 843.48 218.011 843.48ZM218.68 855.84C215.943 855.84 213.802 855.195 212.258 853.895C210.725 852.586 209.961 850.738 209.961 848.351C209.961 845.887 210.663 843.99 212.079 842.653C213.507 841.305 215.474 840.631 217.989 840.631C220.38 840.631 222.248 841.223 223.586 842.402C224.924 843.586 225.593 845.213 225.593 847.292V849.237H214.644C214.7 850.382 215.095 851.272 215.826 851.913C216.55 852.543 217.571 852.856 218.881 852.856C219.906 852.856 220.871 852.769 221.78 852.586C222.699 852.394 223.653 852.1 224.634 851.701V854.8C223.831 855.147 222.967 855.407 222.047 855.57C221.122 855.748 220.001 855.84 218.68 855.84Z" fill="black"/>
<path d="M236.255 855.84C230.975 855.84 228.338 853.332 228.338 848.312C228.338 845.824 229.052 843.923 230.479 842.614C231.917 841.295 233.986 840.631 236.678 840.631C238.641 840.631 240.402 840.968 241.963 841.632L240.581 844.732C239.85 844.477 239.176 844.27 238.551 844.116C237.927 843.952 237.303 843.865 236.678 843.865C234.27 843.865 233.066 845.343 233.066 848.293C233.066 851.157 234.27 852.586 236.678 852.586C237.57 852.586 238.395 852.485 239.154 852.278C239.912 852.076 240.67 851.754 241.428 851.316V854.742C240.67 855.156 239.912 855.436 239.154 855.59C238.395 855.753 237.425 855.84 236.255 855.84Z" fill="black"/>
<path d="M249.059 848.216C249.059 849.67 249.332 850.767 249.884 851.508C250.43 852.254 251.333 852.625 252.582 852.625C253.814 852.625 254.7 852.259 255.235 851.527C255.782 850.786 256.061 849.679 256.061 848.216C256.061 846.768 255.782 845.685 255.235 844.963C254.684 844.231 253.786 843.865 252.537 843.865C251.3 843.865 250.408 844.226 249.861 844.943C249.326 845.665 249.059 846.753 249.059 848.216ZM260.788 848.216C260.788 850.603 260.058 852.471 258.603 853.818C257.142 855.166 255.113 855.84 252.515 855.84C250.876 855.84 249.438 855.532 248.189 854.916C246.951 854.3 246.004 853.414 245.335 852.259C244.666 851.104 244.331 849.756 244.331 848.216C244.331 845.819 245.05 843.957 246.494 842.633C247.932 841.3 249.973 840.631 252.604 840.631C254.238 840.631 255.67 840.939 256.908 841.555C258.157 842.171 259.116 843.052 259.785 844.193C260.454 845.338 260.788 846.676 260.788 848.216Z" fill="black"/>
<path d="M276.456 851.219C276.456 852.721 275.842 853.871 274.627 854.665C273.423 855.45 271.617 855.84 269.208 855.84C267.971 855.84 266.917 855.763 266.042 855.609C265.178 855.469 264.369 855.257 263.611 854.974V851.681C264.47 852.028 265.44 852.326 266.51 852.567C267.592 852.798 268.545 852.914 269.364 852.914C271.042 852.914 271.884 852.49 271.884 851.643C271.884 851.335 271.773 851.085 271.55 850.892C271.327 850.69 270.937 850.464 270.39 850.218C269.855 849.963 269.125 849.67 268.205 849.333C266.911 848.871 265.953 848.442 265.328 848.043C264.715 847.634 264.269 847.172 263.99 846.657C263.723 846.132 263.589 845.492 263.589 844.732C263.589 843.423 264.169 842.417 265.328 841.709C266.499 840.992 268.16 840.631 270.301 840.631C272.353 840.631 274.343 841.016 276.277 841.786L274.872 844.674C274.025 844.356 273.228 844.096 272.486 843.904C271.756 843.702 271.003 843.596 270.234 843.596C268.863 843.596 268.183 843.918 268.183 844.558C268.183 844.919 268.394 845.232 268.829 845.502C269.275 845.762 270.24 846.147 271.728 846.657C273.066 847.119 274.036 847.557 274.649 847.966C275.274 848.365 275.725 848.827 276.01 849.352C276.305 849.867 276.456 850.488 276.456 851.219Z" fill="black"/>
<path d="M277.646 840.901H282.73L285.919 849.16C286.197 849.881 286.387 850.729 286.476 851.701H286.588C286.688 850.806 286.905 849.958 287.234 849.16L290.378 840.901H295.351L288.149 857.438C287.491 858.978 286.554 860.123 285.339 860.884C284.118 861.639 282.691 862.02 281.057 862.02C280.255 862.02 279.474 861.947 278.716 861.808V858.631C279.262 858.747 279.864 858.805 280.522 858.805C281.353 858.805 282.072 858.583 282.685 858.15C283.293 857.712 283.767 857.057 284.112 856.186L284.38 855.474L277.646 840.901Z" fill="black"/>
<path d="M309.611 851.219C309.611 852.721 308.998 853.871 307.782 854.665C306.578 855.45 304.772 855.84 302.364 855.84C301.126 855.84 300.072 855.763 299.197 855.609C298.333 855.469 297.525 855.257 296.766 854.974V851.681C297.625 852.028 298.595 852.326 299.665 852.567C300.747 852.798 301.7 852.914 302.52 852.914C304.198 852.914 305.04 852.49 305.04 851.643C305.04 851.335 304.928 851.085 304.705 850.892C304.482 850.69 304.092 850.464 303.545 850.218C303.01 849.963 302.28 849.67 301.36 849.333C300.067 848.871 299.108 848.442 298.483 848.043C297.87 847.634 297.424 847.172 297.146 846.657C296.878 846.132 296.744 845.492 296.744 844.732C296.744 843.423 297.324 842.417 298.483 841.709C299.654 840.992 301.316 840.631 303.456 840.631C305.508 840.631 307.498 841.016 309.432 841.786L308.028 844.674C307.18 844.356 306.383 844.096 305.642 843.904C304.911 843.702 304.159 843.596 303.389 843.596C302.018 843.596 301.338 843.918 301.338 844.558C301.338 844.919 301.55 845.232 301.984 845.502C302.43 845.762 303.395 846.147 304.883 846.657C306.221 847.119 307.191 847.557 307.805 847.966C308.429 848.365 308.881 848.827 309.165 849.352C309.46 849.867 309.611 850.488 309.611 851.219Z" fill="black"/>
<path d="M320.389 852.644C321.192 852.644 322.162 852.49 323.31 852.182V855.166C322.15 855.614 320.729 855.84 319.051 855.84C317.189 855.84 315.84 855.436 314.992 854.627C314.145 853.819 313.721 852.606 313.721 850.989V843.904H311.514V842.229L314.056 840.881L315.394 837.782H318.36V840.901H323.109V843.904H318.36V850.989C318.36 851.556 318.544 851.97 318.917 852.24C319.285 852.509 319.776 852.644 320.389 852.644Z" fill="black"/>
<path d="M333.757 843.48C332.776 843.48 332.001 843.75 331.438 844.289C330.886 844.828 330.574 845.593 330.501 846.58H336.991C336.974 845.593 336.678 844.828 336.099 844.289C335.519 843.75 334.738 843.48 333.757 843.48ZM334.426 855.84C331.689 855.84 329.548 855.195 328.004 853.895C326.471 852.586 325.707 850.738 325.707 848.351C325.707 845.887 326.409 843.99 327.825 842.653C329.253 841.305 331.221 840.631 333.735 840.631C336.126 840.631 337.994 841.223 339.332 842.402C340.67 843.586 341.339 845.213 341.339 847.292V849.237H330.39C330.446 850.382 330.841 851.272 331.572 851.913C332.296 852.543 333.317 852.856 334.627 852.856C335.653 852.856 336.617 852.769 337.526 852.586C338.446 852.394 339.399 852.1 340.38 851.701V854.8C339.577 855.147 338.713 855.407 337.793 855.57C336.868 855.748 335.747 855.84 334.426 855.84Z" fill="black"/>
<path d="M360.319 855.57H355.68V847.003C355.68 845.954 355.468 845.165 355.056 844.635C354.654 844.096 354.013 843.827 353.138 843.827C351.945 843.827 351.087 844.207 350.551 844.963C350.016 845.723 349.749 846.96 349.749 848.678V855.57H345.11V840.901H348.656L349.28 842.787H349.526C349.983 842.109 350.646 841.584 351.51 841.209C352.369 840.824 353.361 840.631 354.476 840.631C357.018 840.631 358.735 841.353 359.627 842.787H360.051C360.497 842.109 361.155 841.584 362.036 841.209C362.928 840.824 363.931 840.631 365.046 840.631C366.975 840.631 368.436 841.064 369.417 841.921C370.409 842.768 370.911 844.13 370.911 846.002V855.57H366.25V847.003C366.25 845.954 366.038 845.165 365.626 844.635C365.224 844.096 364.583 843.827 363.708 843.827C362.56 843.827 361.707 844.183 361.144 844.886C360.592 845.579 360.319 846.691 360.319 848.216V855.57Z" fill="black"/>
<path d="M183.705 892.494H179.022V881.405L179.067 879.576L179.133 877.593C178.359 878.262 177.818 878.7 177.506 878.902L174.964 880.673L172.689 878.247L179.847 873.319H183.705V892.494Z" fill="black"/>
<path d="M197.936 880.25C200.088 880.25 201.799 880.769 203.065 881.809C204.342 882.849 204.983 884.273 204.983 886.083C204.983 888.229 204.213 889.875 202.686 891.031C201.153 892.186 198.962 892.763 196.108 892.763C193.638 892.763 191.648 892.417 190.131 891.724V888.22C190.934 888.595 191.86 888.894 192.919 889.125C193.989 889.356 194.998 889.471 195.951 889.471C198.817 889.471 200.255 888.46 200.255 886.429C200.255 884.495 198.767 883.522 195.795 883.522C195.26 883.522 194.664 883.571 194.011 883.657C193.37 883.749 192.852 883.85 192.45 883.965L190.577 883.099L191.402 873.319H203.444V876.765H195.528L195.126 880.519L195.639 880.423C196.264 880.307 197.027 880.25 197.936 880.25Z" fill="black"/>
<path d="M211.164 879.056C211.164 880.173 211.275 881.01 211.498 881.559C211.721 882.098 212.083 882.367 212.591 882.367C213.572 882.367 214.063 881.265 214.063 879.056C214.063 876.876 213.572 875.783 212.591 875.783C212.083 875.783 211.721 876.053 211.498 876.592C211.275 877.131 211.164 877.954 211.164 879.056ZM217.876 879.037C217.876 881.053 217.419 882.569 216.515 883.58C215.623 884.581 214.308 885.082 212.568 885.082C210.902 885.082 209.608 884.572 208.688 883.542C207.78 882.502 207.328 881 207.328 879.037C207.328 875.047 209.073 873.05 212.568 873.05C214.274 873.05 215.584 873.569 216.493 874.609C217.413 875.639 217.876 877.112 217.876 879.037ZM228.334 873.319L216.025 892.494H212.368L224.677 873.319H228.334ZM226.706 886.718C226.706 887.835 226.818 888.672 227.041 889.221C227.275 889.76 227.648 890.029 228.156 890.029C229.12 890.029 229.605 888.927 229.605 886.718C229.605 884.538 229.12 883.445 228.156 883.445C227.648 883.445 227.275 883.715 227.041 884.254C226.818 884.793 226.706 885.616 226.706 886.718ZM233.441 886.699C233.441 888.701 232.984 890.212 232.08 891.223C231.188 892.224 229.862 892.725 228.111 892.725C226.444 892.725 225.151 892.214 224.231 891.185C223.322 890.145 222.871 888.653 222.871 886.699C222.871 882.709 224.616 880.712 228.111 880.712C229.834 880.712 231.149 881.231 232.058 882.271C232.978 883.301 233.441 884.774 233.441 886.699Z" fill="black"/>
<path d="M106.231 144.109C106.231 145.841 105.506 147.208 104.068 148.209C102.624 149.21 100.617 149.711 98.0472 149.711C95.6835 149.711 93.5873 149.326 91.7588 148.556V144.782C93.2584 145.35 94.5239 145.755 95.5497 145.995C96.5866 146.226 97.5399 146.342 98.404 146.342C99.4409 146.342 100.238 146.178 100.79 145.841C101.336 145.495 101.615 144.989 101.615 144.32C101.615 143.935 101.487 143.603 101.236 143.319C100.996 143.026 100.64 142.742 100.166 142.472C99.7029 142.203 98.7496 141.77 97.3113 141.163C95.9399 140.614 94.9142 140.085 94.234 139.585C93.565 139.074 93.0299 138.482 92.6285 137.813C92.2271 137.135 92.0264 136.345 92.0264 135.445C92.0264 133.751 92.6842 132.423 94.011 131.46C95.349 130.488 97.1887 129.997 99.5413 129.997C100.684 129.997 101.777 130.122 102.819 130.363C103.873 130.594 104.971 130.921 106.12 131.345L104.603 134.502C103.427 134.079 102.446 133.79 101.66 133.636C100.885 133.472 100.127 133.386 99.3852 133.386C98.4932 133.386 97.8075 133.568 97.3336 133.925C96.8542 134.271 96.6201 134.733 96.6201 135.311C96.6201 135.672 96.7148 135.984 96.9099 136.254C97.0995 136.524 97.4061 136.788 97.8242 137.043C98.2368 137.289 99.2347 137.732 100.812 138.372C102.892 139.233 104.313 140.095 105.072 140.951C105.841 141.813 106.231 142.867 106.231 144.109Z" fill="black"/>
<path d="M117.052 146.515C117.855 146.515 118.825 146.361 119.974 146.053V149.037C118.814 149.485 117.392 149.711 115.714 149.711C113.852 149.711 112.503 149.307 111.656 148.498C110.809 147.689 110.385 146.477 110.385 144.859V137.775H108.177V136.1L110.719 134.752L112.057 131.653H115.023V134.772H119.773V137.775H115.023V144.859C115.023 145.427 115.207 145.841 115.581 146.111C115.949 146.38 116.439 146.515 117.052 146.515Z" fill="black"/>
<path d="M134.189 149.441L133.275 147.439H133.163C132.388 148.301 131.586 148.897 130.755 149.23C129.919 149.547 128.843 149.711 127.522 149.711C125.899 149.711 124.623 149.307 123.686 148.498C122.75 147.689 122.281 146.544 122.281 145.052C122.281 143.502 122.906 142.357 124.154 141.625C125.414 140.884 127.321 140.47 129.863 140.393L132.807 140.316V139.681C132.807 138.194 131.926 137.448 130.175 137.448C128.821 137.448 127.221 137.804 125.381 138.506L123.842 135.811C125.805 134.926 127.973 134.483 130.354 134.483C132.628 134.483 134.373 134.916 135.594 135.773C136.809 136.62 137.423 137.924 137.423 139.681V149.441H134.189ZM132.807 142.646L131.023 142.703C129.668 142.742 128.664 142.954 128.012 143.339C127.354 143.724 127.031 144.311 127.031 145.09C127.031 146.221 127.778 146.785 129.283 146.785C130.354 146.785 131.207 146.525 131.848 145.995C132.483 145.456 132.807 144.744 132.807 143.858V142.646Z" fill="black"/>
<path d="M146.643 141.471L148.65 139.238L153.4 134.772H158.64L151.883 141.144L159.041 149.441H153.69L148.806 143.493L146.821 144.879V149.441H142.183V129.035H146.821V138.141L146.576 141.471H146.643Z" fill="black"/>
<path d="M161.271 130.998C161.271 129.689 162.107 129.035 163.791 129.035C165.469 129.035 166.311 129.689 166.311 130.998C166.311 131.614 166.099 132.096 165.686 132.442C165.268 132.789 164.638 132.962 163.791 132.962C162.107 132.962 161.271 132.307 161.271 130.998ZM166.11 149.441H161.472V134.772H166.11V149.441Z" fill="black"/>
<path d="M186.641 149.441H182.003V140.874C182.003 139.825 181.785 139.036 181.356 138.506C180.921 137.967 180.23 137.698 179.282 137.698C177.972 137.698 177.03 138.078 176.45 138.834C175.881 139.58 175.603 140.817 175.603 142.549V149.441H170.964V134.772H174.51L175.134 136.658H175.38C175.898 135.956 176.612 135.421 177.52 135.06C178.423 134.69 179.46 134.502 180.62 134.502C182.582 134.502 184.076 134.964 185.102 135.888C186.128 136.812 186.641 138.141 186.641 139.873V149.441Z" fill="black"/>
<path d="M206.191 134.772V136.812L203.538 137.409C204.012 138.064 204.251 138.795 204.251 139.604C204.251 141.182 203.61 142.415 202.334 143.3C201.068 144.176 199.306 144.609 197.049 144.609L196.224 144.571L195.532 144.494C195.053 144.816 194.819 145.167 194.819 145.553C194.819 146.13 195.672 146.419 197.383 146.419H200.26C202.116 146.419 203.538 146.765 204.519 147.458C205.5 148.142 205.991 149.148 205.991 150.481C205.991 152.199 205.154 153.527 203.493 154.466C201.843 155.414 199.468 155.891 196.38 155.891C193.999 155.891 192.187 155.53 190.939 154.813C189.69 154.105 189.065 153.109 189.065 151.829C189.065 150.943 189.383 150.202 190.024 149.615C190.66 149.027 191.596 148.604 192.834 148.344C192.355 148.166 191.942 147.877 191.585 147.478C191.228 147.083 191.05 146.659 191.05 146.207C191.05 145.658 191.234 145.196 191.608 144.821C191.992 144.45 192.533 144.085 193.235 143.724C192.343 143.392 191.635 142.857 191.117 142.126C190.593 141.394 190.336 140.528 190.336 139.527C190.336 137.924 190.939 136.687 192.143 135.811C193.347 134.94 195.07 134.502 197.316 134.502C197.79 134.502 198.353 134.541 199.011 134.618C199.663 134.695 200.081 134.748 200.26 134.772H206.191ZM193.079 151.521C193.079 152.069 193.38 152.502 193.994 152.81C194.601 153.128 195.465 153.292 196.58 153.292C198.23 153.292 199.524 153.09 200.46 152.695C201.408 152.295 201.888 151.756 201.888 151.078C201.888 150.524 201.603 150.144 201.04 149.942C200.488 149.735 199.635 149.634 198.476 149.634H196.067C195.22 149.634 194.506 149.797 193.927 150.134C193.358 150.481 193.079 150.943 193.079 151.521ZM194.774 139.585C194.774 140.383 194.98 141.009 195.398 141.471C195.811 141.933 196.452 142.164 197.316 142.164C198.191 142.164 198.833 141.933 199.234 141.471C199.635 141.009 199.836 140.383 199.836 139.585C199.836 137.813 198.994 136.928 197.316 136.928C195.621 136.928 194.774 137.813 194.774 139.585Z" fill="black"/>
<path d="M237.954 149.441H232.223L230.484 147.959C228.549 149.128 226.364 149.711 223.928 149.711C221.458 149.711 219.496 149.225 218.04 148.248C216.597 147.261 215.877 145.933 215.877 144.263C215.877 143.069 216.178 142.049 216.792 141.202C217.399 140.355 218.447 139.565 219.936 138.834C219.178 138.078 218.626 137.361 218.286 136.678C217.94 135.984 217.773 135.234 217.773 134.425C217.773 133.106 218.358 132.038 219.535 131.229C220.722 130.411 222.305 129.997 224.284 129.997C226.157 129.997 227.657 130.377 228.789 131.133C229.915 131.894 230.484 132.899 230.484 134.156C230.484 135.21 230.132 136.167 229.435 137.024C228.733 137.886 227.607 138.699 226.046 139.469L230.372 143.108C231.086 142.082 231.699 140.768 232.223 139.161H237.062C236.705 140.345 236.203 141.5 235.568 142.626C234.927 143.743 234.196 144.734 233.382 145.591L237.954 149.441ZM220.761 143.878C220.761 144.638 221.079 145.24 221.72 145.687C222.372 146.125 223.214 146.342 224.24 146.342C225.516 146.342 226.67 146.082 227.696 145.552L222.656 141.221C222.06 141.606 221.592 142.01 221.252 142.434C220.923 142.848 220.761 143.329 220.761 143.878ZM226.202 134.579C226.202 134.117 226.013 133.761 225.645 133.501C225.288 133.232 224.819 133.097 224.24 133.097C223.571 133.097 223.036 133.241 222.634 133.52C222.244 133.79 222.054 134.184 222.054 134.695C222.054 135.465 222.534 136.321 223.504 137.255C224.362 136.832 225.026 136.418 225.488 136.004C225.962 135.595 226.202 135.118 226.202 134.579Z" fill="black"/>
<path d="M257.945 134.502C258.569 134.502 259.087 134.541 259.505 134.618L259.171 138.372C258.781 138.285 258.324 138.237 257.788 138.237C256.317 138.237 255.163 138.564 254.332 139.219C253.513 139.873 253.106 140.793 253.106 141.972V149.441H248.467V134.772H251.968L252.66 137.255H252.883C253.418 136.422 254.131 135.753 255.023 135.253C255.915 134.752 256.885 134.502 257.945 134.502Z" fill="black"/>
<path d="M269.616 137.351C268.635 137.351 267.86 137.621 267.297 138.16C266.745 138.699 266.433 139.464 266.361 140.451H272.85C272.833 139.464 272.538 138.699 271.958 138.16C271.378 137.621 270.598 137.351 269.616 137.351ZM270.285 149.711C267.548 149.711 265.407 149.066 263.863 147.766C262.33 146.457 261.566 144.609 261.566 142.222C261.566 139.758 262.269 137.862 263.685 136.524C265.112 135.176 267.08 134.502 269.594 134.502C271.986 134.502 273.853 135.094 275.191 136.273C276.529 137.457 277.198 139.084 277.198 141.163V143.108H266.249C266.305 144.253 266.701 145.143 267.431 145.784C268.156 146.414 269.176 146.727 270.486 146.727C271.512 146.727 272.476 146.64 273.385 146.457C274.305 146.265 275.258 145.971 276.239 145.572V148.671C275.437 149.018 274.573 149.278 273.653 149.441C272.727 149.619 271.607 149.711 270.285 149.711Z" fill="black"/>
<path d="M294.929 149.441L293.613 144.32L291.852 137.833H291.762L288.663 149.441H283.668L278.851 134.772H283.467L285.429 141.279C285.742 142.434 286.054 144.041 286.366 146.092H286.477C286.505 145.427 286.678 144.369 286.99 142.915L287.236 141.818L289.332 134.772H294.438L296.423 141.818C296.468 142.01 296.534 142.294 296.624 142.665C296.713 143.04 296.791 143.435 296.869 143.858C296.958 144.282 297.031 144.701 297.092 145.11C297.148 145.524 297.187 145.851 297.203 146.092H297.293C297.382 145.466 297.544 144.604 297.783 143.512C298.017 142.41 298.185 141.664 298.274 141.279L300.325 134.772H304.852L299.969 149.441H294.929Z" fill="black"/>
<path d="M318.386 149.441L317.472 147.439H317.361C316.586 148.301 315.783 148.897 314.952 149.23C314.116 149.547 313.04 149.711 311.719 149.711C310.097 149.711 308.82 149.307 307.883 148.498C306.947 147.689 306.479 146.544 306.479 145.052C306.479 143.502 307.103 142.357 308.352 141.625C309.612 140.884 311.518 140.47 314.06 140.393L317.004 140.316V139.681C317.004 138.194 316.123 137.448 314.372 137.448C313.018 137.448 311.418 137.804 309.578 138.506L308.039 135.811C310.002 134.926 312.17 134.483 314.551 134.483C316.825 134.483 318.57 134.916 319.791 135.773C321.007 136.62 321.62 137.924 321.62 139.681V149.441H318.386ZM317.004 142.646L315.22 142.703C313.865 142.742 312.862 142.954 312.209 143.339C311.552 143.724 311.228 144.311 311.228 145.09C311.228 146.221 311.975 146.785 313.481 146.785C314.551 146.785 315.404 146.525 316.045 145.995C316.68 145.456 317.004 144.744 317.004 143.858V142.646Z" fill="black"/>
<path d="M335.858 134.502C336.482 134.502 337.001 134.541 337.419 134.618L337.085 138.372C336.694 138.285 336.237 138.237 335.702 138.237C334.23 138.237 333.076 138.564 332.246 139.219C331.426 139.873 331.019 140.793 331.019 141.972V149.441H326.381V134.772H329.882L330.573 137.255H330.796C331.331 136.422 332.045 135.753 332.937 135.253C333.829 134.752 334.799 134.502 335.858 134.502Z" fill="black"/>
<path d="M345.879 149.711C343.884 149.711 342.317 149.047 341.174 147.709C340.043 146.361 339.479 144.508 339.479 142.145C339.479 139.734 340.059 137.862 341.219 136.524C342.378 135.176 343.973 134.502 346.013 134.502C348.137 134.502 349.765 135.224 350.897 136.658H351.053C350.813 135.571 350.696 134.594 350.696 133.732V129.035H355.334V149.441H351.789L350.897 147.535H350.696C349.637 148.989 348.031 149.711 345.879 149.711ZM347.507 146.515C348.695 146.515 349.564 146.221 350.116 145.629C350.663 145.028 350.964 144.012 351.008 142.588V142.164C351.008 140.586 350.724 139.459 350.161 138.776C349.609 138.097 348.7 137.756 347.44 137.756C346.398 137.756 345.59 138.136 345.01 138.891C344.441 139.652 344.162 140.749 344.162 142.183C344.162 143.637 344.452 144.72 345.032 145.437C345.612 146.159 346.437 146.515 347.507 146.515Z" fill="black"/>
<path d="M372.03 145.09C372.03 146.592 371.417 147.742 370.201 148.537C368.997 149.321 367.191 149.711 364.783 149.711C363.545 149.711 362.491 149.634 361.616 149.48C360.752 149.34 359.944 149.128 359.185 148.845V145.553C360.044 145.899 361.014 146.197 362.084 146.438C363.166 146.669 364.119 146.785 364.939 146.785C366.617 146.785 367.458 146.361 367.458 145.514C367.458 145.206 367.347 144.956 367.124 144.763C366.901 144.561 366.511 144.335 365.964 144.089C365.429 143.834 364.699 143.541 363.779 143.204C362.486 142.742 361.527 142.313 360.902 141.914C360.289 141.505 359.843 141.043 359.564 140.528C359.297 140.003 359.163 139.363 359.163 138.603C359.163 137.294 359.743 136.288 360.902 135.58C362.073 134.863 363.734 134.502 365.875 134.502C367.927 134.502 369.917 134.887 371.851 135.657L370.447 138.545C369.599 138.227 368.802 137.967 368.061 137.775C367.33 137.573 366.578 137.467 365.808 137.467C364.437 137.467 363.757 137.789 363.757 138.429C363.757 138.79 363.969 139.103 364.403 139.373C364.849 139.633 365.814 140.018 367.302 140.528C368.64 140.99 369.61 141.428 370.224 141.837C370.848 142.236 371.3 142.698 371.584 143.223C371.879 143.738 372.03 144.359 372.03 145.09Z" fill="black"/>
<path d="M212.847 186.365H208.165V175.276L208.209 173.447L208.276 171.464C207.501 172.133 206.96 172.571 206.648 172.773L204.106 174.544L201.832 172.118L208.99 167.19H212.847V186.365Z" fill="black"/>
<path d="M227.079 174.121C229.231 174.121 230.942 174.64 232.208 175.68C233.484 176.72 234.125 178.144 234.125 179.954C234.125 182.1 233.356 183.746 231.828 184.901C230.295 186.057 228.104 186.634 225.25 186.634C222.781 186.634 220.79 186.288 219.274 185.594V182.091C220.077 182.466 221.002 182.765 222.061 182.996C223.132 183.227 224.141 183.342 225.094 183.342C227.96 183.342 229.398 182.331 229.398 180.3C229.398 178.366 227.909 177.393 224.938 177.393C224.403 177.393 223.806 177.441 223.154 177.528C222.513 177.62 221.994 177.721 221.593 177.836L219.72 176.97L220.545 167.19H232.587V170.636H224.67L224.269 174.39L224.782 174.294C225.406 174.178 226.17 174.121 227.079 174.121Z" fill="black"/>
<path d="M240.306 172.927C240.306 174.044 240.418 174.881 240.641 175.43C240.864 175.969 241.226 176.238 241.733 176.238C242.715 176.238 243.205 175.136 243.205 172.927C243.205 170.747 242.715 169.654 241.733 169.654C241.226 169.654 240.864 169.924 240.641 170.463C240.418 171.002 240.306 171.825 240.306 172.927ZM247.018 172.908C247.018 174.924 246.561 176.44 245.658 177.451C244.766 178.452 243.45 178.953 241.711 178.953C240.044 178.953 238.751 178.443 237.831 177.413C236.922 176.373 236.471 174.871 236.471 172.908C236.471 168.918 238.216 166.92 241.711 166.92C243.417 166.92 244.727 167.44 245.636 168.48C246.556 169.51 247.018 170.983 247.018 172.908ZM257.477 167.19L245.167 186.365H241.51L253.82 167.19H257.477ZM255.849 180.589C255.849 181.706 255.96 182.543 256.183 183.092C256.418 183.631 256.791 183.9 257.298 183.9C258.263 183.9 258.748 182.798 258.748 180.589C258.748 178.409 258.263 177.316 257.298 177.316C256.791 177.316 256.418 177.586 256.183 178.125C255.96 178.664 255.849 179.487 255.849 180.589ZM262.583 180.57C262.583 182.572 262.126 184.083 261.223 185.094C260.331 186.095 259.004 186.596 257.254 186.596C255.587 186.596 254.293 186.085 253.374 185.055C252.465 184.016 252.013 182.524 252.013 180.57C252.013 176.58 253.758 174.583 257.254 174.583C258.976 174.583 260.292 175.102 261.201 176.142C262.121 177.172 262.583 178.645 262.583 180.57Z" fill="black"/>
<path d="M581.596 171.036C586.212 171.036 590.822 171.108 595.427 171.247C600.037 171.387 604.642 171.594 609.241 171.873C613.846 172.152 618.44 172.503 623.022 172.922C627.61 173.341 632.187 173.832 636.753 174.39C641.319 174.944 645.874 175.574 650.417 176.267C654.955 176.965 659.482 177.73 663.992 178.563C668.502 179.396 672.99 180.296 677.466 181.268C681.937 182.235 686.392 183.275 690.824 184.377C695.25 185.484 699.66 186.653 704.042 187.895C708.423 189.132 712.783 190.436 717.115 191.808C721.441 193.18 725.744 194.614 730.015 196.115C734.285 197.617 738.528 199.181 742.737 200.813C746.94 202.44 751.116 204.134 755.252 205.89C759.394 207.647 763.497 209.466 767.561 211.343C771.625 213.225 775.651 215.17 779.637 217.172C783.623 219.174 787.564 221.239 791.466 223.361C795.369 225.484 799.227 227.664 803.04 229.902C806.853 232.145 810.622 234.44 814.34 236.794C818.058 239.147 821.732 241.559 825.35 244.023C828.974 246.487 832.542 249.009 836.06 251.584C839.583 254.154 843.045 256.782 846.457 259.463C849.868 262.139 853.224 264.868 856.53 267.649C859.831 270.431 863.07 273.261 866.258 276.139C869.442 279.017 872.569 281.944 875.635 284.918C878.702 287.892 881.706 290.91 884.65 293.976C887.593 297.042 890.476 300.151 893.291 303.303C896.112 306.456 898.86 309.651 901.547 312.886C904.234 316.125 906.854 319.398 909.408 322.714C911.961 326.03 914.447 329.384 916.867 332.773C919.281 336.166 921.628 339.592 923.908 343.053C926.188 346.513 928.39 350.012 930.525 353.54C932.66 357.068 934.723 360.63 936.719 364.22C938.709 367.815 940.621 371.435 942.467 375.083C944.312 378.736 946.079 382.413 947.768 386.114C949.463 389.82 951.08 393.545 952.624 397.299C954.163 401.053 955.629 404.826 957.017 408.624C958.405 412.421 959.715 416.238 960.947 420.074C962.179 423.909 963.333 427.765 964.409 431.634C965.485 435.508 966.483 439.392 967.397 443.296C968.317 447.199 969.153 451.112 969.912 455.039C970.67 458.966 971.35 462.908 971.946 466.855C972.543 470.801 973.061 474.758 973.496 478.723C973.937 482.684 974.288 486.655 974.567 490.63C974.84 494.606 975.035 498.581 975.146 502.562C975.258 506.542 975.291 510.522 975.241 514.502C975.197 518.487 975.063 522.463 974.851 526.443C974.645 530.419 974.349 534.394 973.976 538.36C973.608 542.331 973.151 546.292 972.615 550.248C972.086 554.204 971.473 558.146 970.776 562.083C970.079 566.02 969.304 569.942 968.451 573.855C967.598 577.768 966.661 581.666 965.652 585.55C964.638 589.434 963.545 593.304 962.374 597.154C961.204 601.004 959.955 604.84 958.628 608.652C957.301 612.464 955.902 616.256 954.419 620.03C952.936 623.798 951.381 627.547 949.747 631.268C948.114 634.993 946.402 638.689 944.618 642.362C942.835 646.034 940.978 649.677 939.044 653.292C937.115 656.906 935.108 660.492 933.028 664.048C930.955 667.6 928.803 671.123 926.578 674.613C924.36 678.102 922.068 681.558 919.705 684.975C917.341 688.397 914.91 691.78 912.413 695.125C909.91 698.47 907.345 701.777 904.708 705.045C902.077 708.312 899.373 711.542 896.608 714.728C893.843 717.914 891.011 721.057 888.117 724.157L734.859 617.527C737.753 614.428 740.518 611.241 743.155 607.973C745.792 604.701 748.289 601.356 750.653 597.939C753.017 594.517 755.235 591.027 757.315 587.471C759.394 583.919 761.323 580.304 763.107 576.632C764.897 572.955 766.524 569.235 768.007 565.461C769.49 561.693 770.817 557.881 771.988 554.026C773.159 550.176 774.168 546.292 775.026 542.379C775.879 538.461 776.576 534.529 777.106 530.573C777.641 526.616 778.014 522.651 778.226 518.67C778.438 514.69 778.488 510.71 778.371 506.73C778.26 502.749 777.986 498.774 777.546 494.808C777.111 490.847 776.515 486.896 775.756 482.968C774.998 479.041 774.078 475.138 773.002 471.268C771.927 467.394 770.694 463.558 769.306 459.761C767.918 455.963 766.38 452.209 764.685 448.508C762.99 444.802 761.15 441.154 759.155 437.559C757.164 433.968 755.029 430.44 752.755 426.975C750.475 423.51 748.061 420.122 745.502 416.806C742.948 413.49 740.261 410.255 737.446 407.103C734.625 403.946 731.687 400.885 728.616 397.91C725.549 394.931 722.366 392.053 719.06 389.276C715.76 386.494 712.348 383.813 708.83 381.238C705.313 378.663 701.689 376.199 697.971 373.846C694.247 371.492 690.439 369.254 686.531 367.127C682.629 365.004 678.643 363.002 674.579 361.12C670.514 359.239 666.378 357.487 662.163 355.855C657.954 354.224 653.684 352.722 649.358 351.35C645.026 349.983 640.644 348.742 636.207 347.64C631.775 346.533 627.304 345.565 622.794 344.733C618.284 343.895 613.746 343.202 609.174 342.644C604.609 342.086 600.021 341.667 595.421 341.388C590.816 341.109 586.212 340.969 581.596 340.969V171.036Z" fill="#FF5757"/>
<path d="M900.081 710.661C895.298 716.35 890.308 721.904 885.124 727.323C879.939 732.743 874.565 738.018 869.001 743.153C863.437 748.283 857.695 753.26 851.769 758.087C845.849 762.91 839.761 767.569 833.5 772.069C827.245 776.569 820.834 780.896 814.267 785.049C807.695 789.203 800.988 793.178 794.131 796.971C787.279 800.768 780.294 804.378 773.181 807.795C766.067 811.217 758.842 814.446 751.494 817.478C744.152 820.51 736.704 823.345 729.156 825.983C721.608 828.615 713.97 831.046 706.249 833.274C698.522 835.498 690.729 837.514 682.857 839.324C674.991 841.134 667.063 842.727 659.08 844.113C651.097 845.494 643.075 846.664 635.008 847.617C626.941 848.57 618.847 849.306 610.724 849.826C602.607 850.345 594.473 850.649 586.334 850.735C578.189 850.817 570.056 850.687 561.922 850.336L571.761 680.614C575.826 680.792 579.895 680.86 583.965 680.816C588.034 680.773 592.104 680.624 596.163 680.364C600.221 680.104 604.268 679.734 608.305 679.257C612.335 678.781 616.349 678.198 620.341 677.505C624.332 676.812 628.296 676.013 632.226 675.108C636.162 674.208 640.059 673.198 643.922 672.086C647.786 670.974 651.604 669.756 655.379 668.438C659.153 667.124 662.877 665.704 666.545 664.188C670.219 662.672 673.831 661.06 677.388 659.346C680.945 657.638 684.44 655.833 687.863 653.936C691.292 652.035 694.648 650.052 697.931 647.973C701.215 645.894 704.42 643.733 707.548 641.486C710.681 639.233 713.725 636.904 716.685 634.492C719.645 632.081 722.516 629.588 725.298 627.023C728.08 624.458 730.767 621.82 733.36 619.11C735.952 616.401 738.449 613.624 740.841 610.779L900.081 710.661Z" fill="#D81665"/>
<path d="M581.596 850.76C573.457 850.76 565.323 850.543 557.195 850.105C549.067 849.672 540.966 849.017 532.883 848.146C524.805 847.28 516.766 846.192 508.761 844.893C500.761 843.593 492.817 842.077 484.923 840.349C477.029 838.626 469.207 836.691 461.452 834.545C453.698 832.398 446.027 830.05 438.445 827.489C430.858 824.934 423.371 822.181 415.984 819.221C408.597 816.266 401.322 813.113 394.164 809.763C387.006 806.418 379.97 802.881 373.063 799.161C366.162 795.435 359.394 791.532 352.765 787.446C346.142 783.36 339.67 779.1 333.348 774.668C327.032 770.235 320.877 765.634 314.89 760.874C308.902 756.109 303.088 751.195 297.452 746.118C291.815 741.045 286.369 735.828 281.106 730.461C275.849 725.095 270.787 719.594 265.92 713.958C261.059 708.317 256.398 702.556 251.95 696.67L416.776 603.786C419 606.727 421.325 609.61 423.761 612.425C426.192 615.246 428.723 617.994 431.354 620.679C433.985 623.36 436.706 625.974 439.527 628.51C442.342 631.046 445.246 633.506 448.246 635.883C451.239 638.266 454.317 640.566 457.472 642.78C460.633 644.999 463.872 647.126 467.183 649.172C470.495 651.212 473.879 653.166 477.33 655.029C480.786 656.892 484.304 658.658 487.883 660.333C491.462 662.003 495.097 663.582 498.793 665.059C502.483 666.537 506.23 667.918 510.02 669.193C513.811 670.474 517.647 671.648 521.527 672.721C525.401 673.794 529.315 674.762 533.262 675.623C537.203 676.49 541.178 677.245 545.181 677.895C549.184 678.545 553.203 679.089 557.239 679.522C561.281 679.955 565.334 680.282 569.398 680.504C573.462 680.72 577.526 680.826 581.596 680.826V850.76Z" fill="#A2006E"/>
<path d="M263.116 710.661C259.966 706.922 256.905 703.124 253.934 699.274C250.963 695.424 248.086 691.52 245.299 687.569C242.517 683.618 239.824 679.618 237.226 675.57C234.628 671.523 232.131 667.432 229.728 663.298C227.325 659.158 225.023 654.986 222.815 650.77C220.608 646.554 218.506 642.299 216.499 638.006C214.498 633.718 212.597 629.391 210.796 625.035C208.995 620.679 207.3 616.29 205.706 611.872C204.112 607.454 202.629 603.011 201.246 598.54C199.864 594.069 198.587 589.579 197.416 585.064C196.251 580.55 195.186 576.016 194.233 571.463C193.274 566.91 192.432 562.342 191.691 557.761C190.949 553.179 190.319 548.587 189.801 543.981C189.277 539.375 188.864 534.765 188.563 530.144C188.257 525.529 188.067 520.904 187.978 516.278C187.894 511.653 187.917 507.028 188.056 502.403C188.19 497.778 188.43 493.157 188.781 488.542C189.138 483.921 189.595 479.315 190.169 474.714C190.738 470.113 191.418 465.526 192.204 460.949C192.99 456.372 193.887 451.815 194.891 447.271C195.894 442.723 197.004 438.199 198.225 433.694C199.44 429.189 200.761 424.708 202.194 420.247C203.621 415.79 205.154 411.357 206.793 406.954C208.432 402.545 210.177 398.175 212.022 393.829C213.868 389.488 215.813 385.18 217.865 380.901C219.916 376.628 222.063 372.392 224.315 368.191C226.567 363.994 228.914 359.835 231.361 355.72C233.809 351.605 236.351 347.534 238.988 343.505C241.63 339.482 244.362 335.502 247.188 331.574C250.021 327.642 252.936 323.763 255.947 319.937C258.957 316.11 262.062 312.337 265.251 308.622C268.44 304.901 271.712 301.243 275.079 297.639L428.338 404.268C424.976 407.873 421.787 411.588 418.771 415.419C415.761 419.246 412.934 423.173 410.292 427.201C407.655 431.23 405.207 435.345 402.955 439.546C400.703 443.748 398.657 448.017 396.812 452.363C394.961 456.709 393.327 461.113 391.895 465.575C390.468 470.031 389.247 474.536 388.243 479.084C387.24 483.628 386.454 488.205 385.885 492.806C385.311 497.407 384.96 502.023 384.826 506.648C384.692 511.278 384.776 515.903 385.082 520.523C385.383 525.144 385.907 529.745 386.643 534.331C387.385 538.913 388.338 543.462 389.509 547.981C390.679 552.495 392.062 556.966 393.651 561.385C395.245 565.803 397.046 570.159 399.047 574.452C401.054 578.745 403.256 582.961 405.665 587.095C408.067 591.234 410.66 595.277 413.447 599.233C416.235 603.185 419.206 607.035 422.356 610.779L263.116 710.661Z" fill="#62006E"/>
<path d="M263.116 311.134C267.66 305.734 272.387 300.449 277.293 295.29C282.199 290.13 287.278 285.101 292.524 280.197C297.775 275.297 303.183 270.532 308.757 265.907C314.332 261.282 320.058 256.801 325.939 252.465C331.815 248.128 337.841 243.946 344.002 239.918C350.167 235.889 356.467 232.02 362.895 228.314C369.323 224.603 375.873 221.061 382.541 217.687C389.208 214.313 395.987 211.108 402.878 208.08C409.768 205.048 416.753 202.194 423.833 199.518C430.919 196.847 438.083 194.354 445.336 192.044C452.588 189.734 459.914 187.606 467.312 185.672C474.709 183.732 482.169 181.985 489.684 180.425C497.198 178.866 504.763 177.504 512.373 176.33C519.983 175.155 527.626 174.178 535.302 173.394C542.979 172.609 550.672 172.017 558.388 171.628C566.109 171.233 573.83 171.036 581.557 171.036L581.579 340.969C573.841 340.969 566.131 341.359 558.444 342.148C550.762 342.933 543.157 344.107 535.631 345.666C528.111 347.226 520.719 349.16 513.46 351.475C506.202 353.786 499.122 356.457 492.231 359.494C485.335 362.526 478.673 365.895 472.24 369.61C465.801 373.321 459.646 377.345 453.759 381.686C447.878 386.022 442.308 390.643 437.057 395.552C431.805 400.456 426.905 405.611 422.356 411.016L263.116 311.134Z" fill="#000062"/>
<path d="M581.596 171.036C581.585 171.036 581.596 171.036 581.635 171.036L581.618 340.969C581.618 340.969 581.613 340.969 581.596 340.969V171.036Z" fill="#222789"/>
</svg>
