<svg width="32" height="20" viewBox="0 0 32 20" fill="none" xmlns="http://www.w3.org/2000/svg">
<path fill-rule="evenodd" clip-rule="evenodd" d="M0.249943 9.99988C0.249943 9.71808 0.368467 9.44783 0.579447 9.24858C0.790424 9.04932 1.07657 8.93738 1.37494 8.93738H27.9092L20.8284 2.25213C20.7238 2.15334 20.6409 2.03606 20.5843 1.90699C20.5277 1.77792 20.4985 1.63958 20.4985 1.49988C20.4985 1.36017 20.5277 1.22183 20.5843 1.09276C20.6409 0.963691 20.7238 0.846414 20.8284 0.747627C20.933 0.64884 21.0572 0.570478 21.1939 0.517015C21.3305 0.463552 21.477 0.436035 21.6249 0.436035C21.7729 0.436035 21.9193 0.463552 22.056 0.517015C22.1927 0.570478 22.3168 0.64884 22.4214 0.747627L31.4214 9.24763C31.5262 9.34632 31.6093 9.46357 31.666 9.59266C31.7228 9.72174 31.752 9.86012 31.752 9.99988C31.752 10.1396 31.7228 10.278 31.666 10.4071C31.6093 10.5362 31.5262 10.6534 31.4214 10.7521L22.4214 19.2521C22.3168 19.3509 22.1927 19.4293 22.056 19.4827C21.9193 19.5362 21.7729 19.5637 21.6249 19.5637C21.477 19.5637 21.3305 19.5362 21.1939 19.4827C21.0572 19.4293 20.933 19.3509 20.8284 19.2521C20.7238 19.1533 20.6409 19.0361 20.5843 18.907C20.5277 18.7779 20.4985 18.6396 20.4985 18.4999C20.4985 18.3602 20.5277 18.2218 20.5843 18.0928C20.6409 17.9637 20.7238 17.8464 20.8284 17.7476L27.9092 11.0624H1.37494C1.07657 11.0624 0.790424 10.9504 0.579447 10.7512C0.368467 10.5519 0.249943 10.2817 0.249943 9.99988Z" fill="white"/>
</svg>
